<mxfile host="app.diagrams.net" modified="2024-05-09T15:18:44.327Z" agent="Mozilla/5.0 (Windows NT 10.0; Win64; x64) AppleWebKit/537.36 (KHTML, like Gecko) Chrome/124.0.0.0 Safari/537.36" etag="ST-CVnNShs4WQh78RF8L" version="24.3.1" type="device">
  <diagram name="第 1 页" id="muFoqXOlIYr0LIS1m6zO">
    <mxGraphModel dx="281" dy="167" grid="1" gridSize="10" guides="1" tooltips="1" connect="1" arrows="1" fold="1" page="1" pageScale="1" pageWidth="827" pageHeight="1169" math="1" shadow="0">
      <root>
        <mxCell id="0" />
        <mxCell id="1" parent="0" />
        <mxCell id="KQ6C_JaV1hKq9ZtMMTgu-1" value="\(R_1\)" style="rounded=0;whiteSpace=wrap;html=1;" vertex="1" parent="1">
          <mxGeometry x="415" y="40" width="130" height="20" as="geometry" />
        </mxCell>
        <mxCell id="KQ6C_JaV1hKq9ZtMMTgu-2" value="\(R_2\)" style="rounded=0;whiteSpace=wrap;html=1;" vertex="1" parent="1">
          <mxGeometry x="415" y="100" width="130" height="20" as="geometry" />
        </mxCell>
        <mxCell id="KQ6C_JaV1hKq9ZtMMTgu-3" value="" style="endArrow=none;html=1;rounded=0;entryX=0;entryY=0.5;entryDx=0;entryDy=0;" edge="1" parent="1" target="KQ6C_JaV1hKq9ZtMMTgu-1">
          <mxGeometry width="50" height="50" relative="1" as="geometry">
            <mxPoint x="370" y="50" as="sourcePoint" />
            <mxPoint x="680" y="70" as="targetPoint" />
          </mxGeometry>
        </mxCell>
        <mxCell id="KQ6C_JaV1hKq9ZtMMTgu-4" value="" style="endArrow=none;html=1;rounded=0;entryX=0;entryY=0.5;entryDx=0;entryDy=0;" edge="1" parent="1" target="KQ6C_JaV1hKq9ZtMMTgu-2">
          <mxGeometry width="50" height="50" relative="1" as="geometry">
            <mxPoint x="370" y="110" as="sourcePoint" />
            <mxPoint x="400" y="119.70999999999998" as="targetPoint" />
          </mxGeometry>
        </mxCell>
        <mxCell id="KQ6C_JaV1hKq9ZtMMTgu-5" value="" style="endArrow=none;html=1;rounded=0;" edge="1" parent="1">
          <mxGeometry width="50" height="50" relative="1" as="geometry">
            <mxPoint x="370" y="110" as="sourcePoint" />
            <mxPoint x="370" y="50" as="targetPoint" />
          </mxGeometry>
        </mxCell>
        <mxCell id="KQ6C_JaV1hKq9ZtMMTgu-6" value="" style="endArrow=none;html=1;rounded=0;" edge="1" parent="1">
          <mxGeometry width="50" height="50" relative="1" as="geometry">
            <mxPoint x="590" y="110" as="sourcePoint" />
            <mxPoint x="590" y="50" as="targetPoint" />
          </mxGeometry>
        </mxCell>
        <mxCell id="KQ6C_JaV1hKq9ZtMMTgu-7" value="" style="endArrow=none;html=1;rounded=0;entryX=0;entryY=0.5;entryDx=0;entryDy=0;" edge="1" parent="1">
          <mxGeometry width="50" height="50" relative="1" as="geometry">
            <mxPoint x="340" y="80" as="sourcePoint" />
            <mxPoint x="370" y="80" as="targetPoint" />
          </mxGeometry>
        </mxCell>
        <mxCell id="KQ6C_JaV1hKq9ZtMMTgu-8" value="" style="endArrow=none;html=1;rounded=0;exitX=1;exitY=0.5;exitDx=0;exitDy=0;" edge="1" parent="1" source="KQ6C_JaV1hKq9ZtMMTgu-1">
          <mxGeometry width="50" height="50" relative="1" as="geometry">
            <mxPoint x="560" y="39.70999999999998" as="sourcePoint" />
            <mxPoint x="590" y="50" as="targetPoint" />
          </mxGeometry>
        </mxCell>
        <mxCell id="KQ6C_JaV1hKq9ZtMMTgu-9" value="" style="endArrow=none;html=1;rounded=0;exitX=1;exitY=0.5;exitDx=0;exitDy=0;" edge="1" parent="1" source="KQ6C_JaV1hKq9ZtMMTgu-2">
          <mxGeometry width="50" height="50" relative="1" as="geometry">
            <mxPoint x="560" y="119.70999999999998" as="sourcePoint" />
            <mxPoint x="590" y="110" as="targetPoint" />
          </mxGeometry>
        </mxCell>
        <mxCell id="KQ6C_JaV1hKq9ZtMMTgu-10" value="" style="endArrow=none;html=1;rounded=0;entryX=0;entryY=0.5;entryDx=0;entryDy=0;" edge="1" parent="1">
          <mxGeometry width="50" height="50" relative="1" as="geometry">
            <mxPoint x="590" y="80" as="sourcePoint" />
            <mxPoint x="620" y="80" as="targetPoint" />
          </mxGeometry>
        </mxCell>
        <mxCell id="KQ6C_JaV1hKq9ZtMMTgu-11" value="\(\frac{1}{R}=\frac{1}{R_1}+\frac{1}{R_2}\)" style="text;html=1;align=center;verticalAlign=middle;whiteSpace=wrap;rounded=0;fontSize=20;" vertex="1" parent="1">
          <mxGeometry x="400" y="160" width="160" height="30" as="geometry" />
        </mxCell>
        <mxCell id="KQ6C_JaV1hKq9ZtMMTgu-12" value="\(R_1\)" style="rounded=0;whiteSpace=wrap;html=1;" vertex="1" parent="1">
          <mxGeometry x="110" y="70" width="80" height="20" as="geometry" />
        </mxCell>
        <mxCell id="KQ6C_JaV1hKq9ZtMMTgu-13" value="\(R_1\)" style="rounded=0;whiteSpace=wrap;html=1;" vertex="1" parent="1">
          <mxGeometry x="210" y="70" width="80" height="20" as="geometry" />
        </mxCell>
        <mxCell id="KQ6C_JaV1hKq9ZtMMTgu-14" value="" style="endArrow=none;html=1;rounded=0;entryX=0;entryY=0.5;entryDx=0;entryDy=0;" edge="1" parent="1" target="KQ6C_JaV1hKq9ZtMMTgu-12">
          <mxGeometry width="50" height="50" relative="1" as="geometry">
            <mxPoint x="90" y="80" as="sourcePoint" />
            <mxPoint x="90" y="70" as="targetPoint" />
          </mxGeometry>
        </mxCell>
        <mxCell id="KQ6C_JaV1hKq9ZtMMTgu-16" value="" style="endArrow=none;html=1;rounded=0;entryX=0;entryY=0.5;entryDx=0;entryDy=0;" edge="1" parent="1">
          <mxGeometry width="50" height="50" relative="1" as="geometry">
            <mxPoint x="190" y="79.82999999999998" as="sourcePoint" />
            <mxPoint x="210" y="79.82999999999998" as="targetPoint" />
          </mxGeometry>
        </mxCell>
        <mxCell id="KQ6C_JaV1hKq9ZtMMTgu-17" value="" style="endArrow=none;html=1;rounded=0;entryX=0;entryY=0.5;entryDx=0;entryDy=0;" edge="1" parent="1">
          <mxGeometry width="50" height="50" relative="1" as="geometry">
            <mxPoint x="290" y="79.80000000000001" as="sourcePoint" />
            <mxPoint x="310" y="79.80000000000001" as="targetPoint" />
          </mxGeometry>
        </mxCell>
        <mxCell id="KQ6C_JaV1hKq9ZtMMTgu-18" value="\(R=R_1+R_2\)" style="text;html=1;align=center;verticalAlign=middle;whiteSpace=wrap;rounded=0;fontSize=20;" vertex="1" parent="1">
          <mxGeometry x="120" y="160" width="160" height="30" as="geometry" />
        </mxCell>
      </root>
    </mxGraphModel>
  </diagram>
</mxfile>
